<?xml version="1.0" standalone="no"?>
<!DOCTYPE svg PUBLIC "-//W3C//DTD SVG 20010904//EN"
 "http://www.w3.org/TR/2001/REC-SVG-20010904/DTD/svg10.dtd">
<svg version="1.0" xmlns="http://www.w3.org/2000/svg"
 width="1280.000000pt" height="731.000000pt" viewBox="0 0 1280.000000 731.000000"
 preserveAspectRatio="xMidYMid meet">
<metadata>
Created by potrace 1.15, written by Peter Selinger 2001-2017
</metadata>
<g transform="translate(0.000000,731.000000) scale(0.100000,-0.100000)"
fill="#000000" stroke="none">
<path d="M6922 6654 c-68 -24 -136 -53 -152 -64 -16 -11 -59 -30 -94 -41 -53
-17 -74 -30 -108 -68 -43 -47 -49 -51 -188 -90 -14 -4 -48 -38 -79 -77 l-53
-69 -92 -11 c-99 -12 -161 -37 -194 -79 -25 -32 -228 -129 -303 -145 -31 -7
-72 -10 -92 -6 -42 8 -87 41 -87 65 0 17 -83 122 -102 129 -5 2 -39 -2 -76 -8
-37 -7 -98 -16 -137 -20 -59 -6 -113 -16 -310 -55 -11 -2 -39 -22 -61 -44 -32
-30 -53 -41 -90 -47 -48 -7 -112 -42 -189 -104 -37 -29 -43 -31 -90 -24 -76
12 -140 6 -245 -23 -116 -31 -126 -36 -145 -73 l-16 -30 -33 32 c-33 33 -116
177 -116 202 0 8 -6 19 -14 25 -8 7 -17 27 -20 45 -3 18 -19 46 -34 62 -16 16
-36 51 -46 77 -19 50 -25 55 -116 87 -63 22 -86 22 -128 1 -23 -12 -48 -21
-57 -21 -8 0 -23 -4 -33 -9 -28 -15 -90 -41 -97 -41 -10 0 -143 -57 -195 -84
-48 -24 -319 -116 -344 -116 -8 0 -27 -6 -43 -14 -27 -14 -167 -58 -228 -72
-16 -4 -57 -20 -89 -35 -33 -16 -63 -26 -67 -24 -14 9 -149 -67 -179 -101 -39
-45 -44 -71 -31 -141 6 -32 18 -109 26 -172 7 -63 19 -119 24 -124 6 -6 11
-26 11 -44 0 -18 9 -55 20 -83 11 -28 20 -64 20 -80 0 -16 5 -32 10 -35 6 -3
10 -19 10 -35 0 -30 26 -139 35 -148 9 -10 -48 -62 -67 -62 -11 0 -31 -11 -46
-25 -15 -14 -31 -25 -37 -25 -5 0 -21 -26 -35 -57 -17 -39 -44 -76 -87 -117
-92 -87 -91 -86 -158 -77 -47 7 -69 4 -105 -9 -25 -10 -79 -30 -120 -46 -65
-25 -90 -42 -137 -95 -19 -22 -100 -69 -119 -69 -76 0 -165 -152 -179 -304 -7
-75 -8 -77 -40 -90 -43 -18 -82 -61 -101 -113 -17 -45 -17 -47 16 -163 12 -41
28 -100 35 -130 28 -116 63 -214 88 -245 14 -18 29 -45 33 -60 3 -14 22 -49
41 -76 23 -34 36 -66 40 -99 4 -37 14 -59 40 -87 19 -21 46 -60 60 -88 14 -27
36 -67 49 -87 13 -21 24 -46 24 -56 0 -39 70 -159 129 -221 58 -60 61 -66 61
-114 0 -70 17 -118 61 -174 21 -26 43 -58 49 -70 18 -43 152 -228 200 -278 26
-27 58 -70 70 -95 44 -87 75 -123 150 -173 41 -27 112 -78 157 -113 45 -35
107 -75 138 -89 33 -16 60 -36 64 -49 10 -25 172 -124 254 -155 32 -11 75 -30
95 -40 21 -11 84 -35 140 -54 90 -31 110 -43 168 -96 60 -55 146 -101 188
-101 7 0 25 -14 42 -31 25 -27 167 -131 224 -164 10 -6 24 -16 31 -22 8 -6 30
-13 49 -16 19 -3 58 -11 85 -17 28 -7 98 -13 156 -14 74 -2 117 -8 141 -19 19
-9 60 -19 90 -23 44 -5 61 -3 84 12 17 12 49 20 84 21 30 1 102 5 161 9 83 5
115 3 152 -10 58 -19 132 -20 209 -2 40 10 59 11 67 3 7 -7 17 -7 33 0 13 7
93 14 178 18 113 4 170 11 212 26 31 10 68 19 80 19 13 0 42 9 65 20 38 17 52
18 131 9 57 -6 118 -6 173 0 46 5 102 6 124 2 22 -4 54 -3 70 2 17 6 71 13
120 17 103 8 225 28 240 40 6 4 55 13 110 20 72 10 116 21 155 42 30 15 69 28
87 28 32 0 183 76 247 123 39 29 132 69 154 66 19 -2 66 8 97 21 11 5 65 16
120 24 135 22 201 35 255 53 51 17 241 75 345 105 39 12 77 24 85 28 8 5 47
15 85 25 57 13 82 14 135 6 92 -15 140 -13 175 6 30 17 96 24 365 41 126 8
142 12 240 52 58 23 111 43 118 44 6 1 27 18 45 38 18 19 60 49 93 66 34 17
74 42 90 55 32 26 124 43 141 26 6 -6 14 -4 23 6 20 24 175 21 235 -5 51 -22
90 -26 100 -10 10 16 81 12 95 -5 7 -8 29 -20 50 -26 32 -10 41 -9 65 7 25 16
48 18 201 16 148 -2 182 1 231 17 32 10 85 22 117 26 101 12 149 41 162 97 5
25 17 35 69 59 34 15 109 42 166 59 121 36 195 62 249 90 29 15 163 39 221 40
11 0 75 160 97 241 69 251 65 227 48 304 -9 39 -26 111 -37 160 -23 100 -51
150 -109 190 -21 14 -49 38 -63 53 -51 53 -57 56 -90 44 -31 -12 -55 -3 -43
16 3 5 34 17 68 27 34 9 78 26 97 36 20 10 41 19 47 19 23 0 82 79 103 136 11
33 32 80 46 105 l25 47 -21 68 c-11 38 -36 107 -54 154 -18 47 -41 114 -49
148 -9 34 -22 75 -28 90 -6 15 -12 32 -14 37 -1 6 -9 30 -17 55 -8 25 -22 71
-31 102 -17 60 -33 77 -175 188 -81 63 -124 77 -183 61 -24 -7 -69 -16 -101
-21 -32 -4 -70 -12 -85 -18 -46 -16 -126 -33 -170 -35 -53 -2 -65 10 -122 121
-35 68 -53 91 -81 106 -23 13 -41 32 -48 52 -12 33 -89 104 -113 104 -8 0 -35
24 -61 54 -31 36 -81 75 -149 116 -117 71 -148 106 -208 236 -68 146 -125 174
-239 117 -47 -23 -55 -24 -62 -10 -15 26 -60 29 -123 7 -67 -23 -85 -17 -128
40 -12 17 -28 30 -35 30 -16 0 -116 66 -182 119 -24 20 -85 56 -135 81 l-91
45 -5 65 c-8 104 -49 151 -145 170 -162 32 -192 33 -325 9 -50 -10 -60 -8
-110 15 -30 14 -65 26 -77 26 -12 0 -36 8 -55 17 -18 9 -41 20 -50 25 -10 4
-38 8 -63 8 -36 0 -45 3 -45 18 1 29 44 124 78 171 30 42 32 49 32 133 0 67
-5 101 -20 136 -38 88 -44 95 -90 110 -25 8 -56 23 -70 32 -14 9 -41 24 -60
33 -19 8 -61 26 -92 40 -31 14 -92 30 -135 37 -43 6 -92 15 -110 21 -22 7 -39
7 -51 0 -10 -6 -23 -6 -28 -2 -20 18 -108 31 -209 31 l-105 0 -76 70 c-74 69
-76 70 -127 69 -34 -1 -95 -16 -175 -45z m-2099 -2149 c-12 -9 -19 -10 -22 -3
-4 12 20 29 32 21 4 -3 0 -11 -10 -18z"/>
</g>
</svg>
